<?xml version="1.0" encoding="UTF-8"?>
<!-- Created with Inkscape (http://www.inkscape.org/) -->
<svg id="lábaru_cántabru" width="900" height="600" version="1.0" xmlns="http://www.w3.org/2000/svg" xmlns:cc="http://creativecommons.org/ns#" xmlns:dc="http://purl.org/dc/elements/1.1/" xmlns:rdf="http://www.w3.org/1999/02/22-rdf-syntax-ns#" xmlns:xlink="http://www.w3.org/1999/xlink">
 <rect id="rect1" width="900" height="600" style="fill:#b90058"/>
 <circle id="circle1" cx="450" cy="300" r="31.25" style="fill:#ffd700"/>
 <g id="lábaru" transform="matrix(.745012 0 0 .745012 450 300)" style="fill:#ffd700">
  <path id="branch" d="m71.1395-0.0301888c8e-3 31.02 30.4397 92.7877 111.943 143.635 12.458 7.86375 17.5622 11.4172 19.6709 15.0486 0.90284 1.46879 1.43979 3.03852 1.76671 5.21719 1.29682 12.721 13.5389 28.7385 32.5889 28.3066 16.1755-0.24798 31.3501-13.4879 31.3431-32.161 7e-3 -20.4218-15.9685-31.919-31.2291-31.919-8.06971 0-13.5849 2.92256-19.4629 5.23321-1.33079 0.55791-2.39761 0.87986-3.42646 0.82486-3.64344-1.52674-7.1099-4.85423-15.7525-13.2709-25.0441-24.9257-75.4971-78.7093-75.4991-120.915 2e-3 -42.2058 50.4551-95.9893 75.4991-120.915 8.64264-8.41667 12.1091-11.7441 15.7525-13.2709 1.02885-0.055 2.09567 0.26696 3.42646 0.82488 5.87807 2.31062 11.3932 5.23316 19.4629 5.23316 15.2606 0 31.2361-11.4972 31.2291-31.919 7e-3 -18.6731-15.1676-31.913-31.3431-32.1609-19.05-0.43094-31.2921 15.5856-32.5889 28.3066-0.32692 2.17866-0.86387 3.74841-1.76671 5.21718-2.10868 3.63143-7.21289 7.18486-19.6709 15.0486-81.5032 50.8478-111.935 112.616-111.943 143.635z" style="fill:#ffd700;stroke-width:1"/>
  <use id="use2" transform="rotate(90)" width="100%" height="100%" style="fill:#ffd700" xlink:href="#branch"/>
  <use id="use3" transform="scale(-1)" width="100%" height="100%" style="fill:#ffd700" xlink:href="#branch"/>
  <use id="use4" transform="rotate(-90)" width="100%" height="100%" style="fill:#ffd700" xlink:href="#branch"/>
 </g>
</svg>
